<svg id="b25fd2cb-2e17-4e79-8908-5347554cae40" data-name="svg2" xmlns="http://www.w3.org/2000/svg" viewBox="0 0 204.1 320">
    <g id="abd3c333-5145-42fe-9740-3cfbb4ccf6a0" data-name="g9888">
    <path id="a65913f5-4618-4c59-b7c5-76463b8fc23f" data-name="rect3757-26-33-5-9" d="M22.1,0h160a20.06,20.06,0,0,1,20,20V300a20.06,20.06,0,0,1-20,20H22.1a20.06,20.06,0,0,1-20-20V20A20.06,20.06,0,0,1,22.1,0Z" style="fill-rule:evenodd"/><path id="fa041637-0114-4a7a-8373-076b8bcc38c7" data-name="path3773-0-4-8-4-60-3-86-5" d="M162.1,60A160,160,0,0,0,2.1,220a40,40,0,0,0,40,40,160,160,0,0,0,160-160A40,40,0,0,0,162.1,60Z" style="fill:#fff;fill-rule:evenodd"/><path id="f38293eb-823a-4430-a0f9-ccfe879c51e6" data-name="path3773-0-4-8-8-7-9-0" d="M13.9,160A159.62,159.62,0,0,0,2.1,220a40,40,0,0,0,40,40l60-100Z" style="fill:#fa0;fill-rule:evenodd"/><path id="e5546942-1c06-4f3e-949a-e4b61a374b52" data-name="path3773-0-4-8-8-5-6-5-0" d="M102.1,160l-60,100c67.1,0,124.5-41.4,148.3-100Z" style="fill:#0a0;fill-rule:evenodd"/><path id="ab18b79f-7be0-4695-8e76-eff274d0e5a6" data-name="path3773-0-4-8-8-1-4-3" d="M162.1,60C95,60,37.6,101.4,13.8,160H102Z" style="fill:#f55;fill-rule:evenodd"/><path id="be3fb3fe-2b3c-4b38-b927-458785d95a72" data-name="path3773-0-4-8-8-5-8-3-9" d="M162.1,60l-60,100h88.3a159.62,159.62,0,0,0,11.8-60A40.14,40.14,0,0,0,162.1,60Z" style="fill:#55f;fill-rule:evenodd"/><path id="b9247d46-9faf-4feb-beae-f7226556747c" data-name="path3773-0-4-8-8-7-9-5-7" d="M15.1,35a39.3,39.3,0,0,0-2.9,15,10,10,0,0,0,10,10l15-25Z" style="fill:#fa0;fill-rule:evenodd"/><path id="fba7b8f6-f199-4c01-aa8d-01e62ed37faa" data-name="path3773-0-4-8-8-5-6-5-08-9" d="M37.1,35l-15,25A40,40,0,0,0,59.2,35Z" style="fill:#0a0;fill-rule:evenodd"/><path id="af1cd3f8-cd84-40be-8ca5-9c21ae736727" data-name="path3773-0-4-8-8-1-4-39-9" d="M52.1,10A40,40,0,0,0,15,35H37.1Z" style="fill:#f55;fill-rule:evenodd"/><path id="aeb11fac-823c-4b0b-96f6-69d282702afe" data-name="path3773-0-4-8-8-5-8-3-3-7" d="M52.1,10l-15,25H59.2a39.3,39.3,0,0,0,2.9-15A10,10,0,0,0,52.1,10Z" style="fill:#55f;fill-rule:evenodd"/><path id="ac69afa4-97a5-4370-bfc1-680a16afffdc" data-name="path3773-0-4-8-8-7-9-5-3" d="M145.1,285a39.3,39.3,0,0,0-2.9,15,10,10,0,0,0,10,10l15-25Z" style="fill:#fa0;fill-rule:evenodd"/><path id="e7a322b5-9386-43d7-839e-2d1a5faad4bc" data-name="path3773-0-4-8-8-5-6-5-08-5" d="M167.1,285l-15,25a40,40,0,0,0,37.1-25Z" style="fill:#0a0;fill-rule:evenodd"/><path id="a338396b-132f-43c2-b3fb-9d38010fd950" data-name="path3773-0-4-8-8-1-4-39-7" d="M182.1,260A40,40,0,0,0,145,285h22.1Z" style="fill:#f55;fill-rule:evenodd"/><path id="b1186f84-a287-4fe8-938b-d381a66a4719" data-name="path3773-0-4-8-8-5-8-3-3-6" d="M182.1,260l-15,25h22.1a39.3,39.3,0,0,0,2.9-15A10,10,0,0,0,182.1,260Z" style="fill:#55f;fill-rule:evenodd"/><path id="b1accbb3-a71b-4822-92e1-79140807d23d" data-name="path3773-0-4-8-8-7-9-0-03-8" d="M162.1,60C95,60,37.6,101.4,13.8,160A159.62,159.62,0,0,0,2,220a40,40,0,0,0,40,40c67.1,0,124.5-41.4,148.3-100a159.62,159.62,0,0,0,11.8-60A40,40,0,0,0,162.1,60Z" style="fill:none;stroke:#fff;stroke-width:4px"/><path id="a1631330-3ec1-46ae-b903-18570cd09a66" data-name="path3773-0-4-8-8-7-9-0-03-8-9" d="M52.1,10A40,40,0,0,0,15,35a39.3,39.3,0,0,0-2.9,15,10,10,0,0,0,10,10A40,40,0,0,0,59.2,35a39.3,39.3,0,0,0,2.9-15A10,10,0,0,0,52.1,10Z" style="fill:none;stroke:#fff;stroke-width:4px"/><path id="b9593a3e-c727-44a3-8416-812bafcf127b" data-name="path3773-0-4-8-8-7-9-0-03-8-9-5" d="M182.1,260A40,40,0,0,0,145,285a39.3,39.3,0,0,0-2.9,15,10,10,0,0,0,10,10,40,40,0,0,0,37.1-25,39.3,39.3,0,0,0,2.9-15A10,10,0,0,0,182.1,260Z" style="fill:none;stroke:#fff;stroke-width:4px"/></g><g id="a763016f-a912-4ee7-8c40-685040d70852" data-name="g9888-0"><path id="a94e219c-2a19-457b-bd82-e6c30b398cff" data-name="rect3757-26-33-5-9-0" d="M22.1,0h160a20.06,20.06,0,0,1,20,20V300a20.06,20.06,0,0,1-20,20H22.1a20.06,20.06,0,0,1-20-20V20A20.06,20.06,0,0,1,22.1,0Z" style="fill-rule:evenodd"/><path id="b41e11de-104d-4eb3-8636-b511091d9ed9" data-name="path3773-0-4-8-4-60-3-86-5-7" d="M162.1,60A160,160,0,0,0,2.1,220a40,40,0,0,0,40,40,160,160,0,0,0,160-160A40,40,0,0,0,162.1,60Z" style="fill:#fff;fill-rule:evenodd"/><path id="a2385536-6e00-4e7d-8b94-1815f6b73f02" data-name="path3773-0-4-8-8-7-9-0-9" d="M13.9,160A159.62,159.62,0,0,0,2.1,220a40,40,0,0,0,40,40l60-100Z" style="fill:#fa0;fill-rule:evenodd"/><path id="bb2c3175-78bb-43d3-9978-7da9b87887d3" data-name="path3773-0-4-8-8-5-6-5-0-08" d="M102.1,160l-60,100c67.1,0,124.5-41.4,148.3-100Z" style="fill:#0a0;fill-rule:evenodd"/><path id="a1019183-fc1f-4cd4-bcda-bbacf0a18fc9" data-name="path3773-0-4-8-8-1-4-3-1" d="M162.1,60C95,60,37.6,101.4,13.8,160H102Z" style="fill:#f55;fill-rule:evenodd"/><path id="e533ba80-d04e-4dad-be1f-ecb667928b0c" data-name="path3773-0-4-8-8-5-8-3-9-4" d="M162.1,60l-60,100h88.3a159.62,159.62,0,0,0,11.8-60A40.14,40.14,0,0,0,162.1,60Z" style="fill:#55f;fill-rule:evenodd"/><path id="b7d04652-666b-49ca-ae91-66b98b474abb" data-name="path3773-0-4-8-8-7-9-5-7-0" d="M15.1,35a39.3,39.3,0,0,0-2.9,15,10,10,0,0,0,10,10l15-25Z" style="fill:#fa0;fill-rule:evenodd"/><path id="f67b60bd-1d9b-4807-a6d1-1a268937bd41" data-name="path3773-0-4-8-8-5-6-5-08-9-79" d="M37.1,35l-15,25A40,40,0,0,0,59.2,35Z" style="fill:#0a0;fill-rule:evenodd"/><path id="b47a99c5-8185-4edb-8f44-6a19865e9b0d" data-name="path3773-0-4-8-8-1-4-39-9-5" d="M52.1,10A40,40,0,0,0,15,35H37.1Z" style="fill:#f55;fill-rule:evenodd"/><path id="af1ddab3-1f05-404d-8396-0aa5e612cd5c" data-name="path3773-0-4-8-8-5-8-3-3-7-38" d="M52.1,10l-15,25H59.2a39.3,39.3,0,0,0,2.9-15A10,10,0,0,0,52.1,10Z" style="fill:#55f;fill-rule:evenodd"/><path id="b9e1f711-e8b4-4ff7-9f02-9ef4638ac8a3" data-name="path3773-0-4-8-8-7-9-5-3-2" d="M145.1,285a39.3,39.3,0,0,0-2.9,15,10,10,0,0,0,10,10l15-25Z" style="fill:#fa0;fill-rule:evenodd"/><path id="e8ff1e0c-9ae4-4bd0-aee1-8b1ea772fbc1" data-name="path3773-0-4-8-8-5-6-5-08-5-3" d="M167.1,285l-15,25a40,40,0,0,0,37.1-25Z" style="fill:#0a0;fill-rule:evenodd"/><path id="a1599e7b-c275-40df-af02-80d88b26a108" data-name="path3773-0-4-8-8-1-4-39-7-2" d="M182.1,260A40,40,0,0,0,145,285h22.1Z" style="fill:#f55;fill-rule:evenodd"/><path id="a7ca0934-3e70-42bc-badf-ce456e328014" data-name="path3773-0-4-8-8-5-8-3-3-6-1" d="M182.1,260l-15,25h22.1a39.3,39.3,0,0,0,2.9-15A10,10,0,0,0,182.1,260Z" style="fill:#55f;fill-rule:evenodd"/><path id="bb306b72-baca-48aa-b81d-dd7d120a3cc8" data-name="path3773-0-4-8-8-7-9-0-03-8-0" d="M162.1,60C95,60,37.6,101.4,13.8,160A159.62,159.62,0,0,0,2,220a40,40,0,0,0,40,40c67.1,0,124.5-41.4,148.3-100a159.62,159.62,0,0,0,11.8-60A40,40,0,0,0,162.1,60Z" style="fill:none;stroke:#fff;stroke-width:4px"/><path id="adfd52e6-6c64-44b6-8cd8-bed93e0e7bae" data-name="path3773-0-4-8-8-7-9-0-03-8-9-4" d="M52.1,10A40,40,0,0,0,15,35a39.3,39.3,0,0,0-2.9,15,10,10,0,0,0,10,10A40,40,0,0,0,59.2,35a39.3,39.3,0,0,0,2.9-15A10,10,0,0,0,52.1,10Z" style="fill:none;stroke:#fff;stroke-width:4px"/><path id="ad6592c4-cdb3-4296-aeb8-2344f6423303" data-name="path3773-0-4-8-8-7-9-0-03-8-9-5-07" d="M182.1,260A40,40,0,0,0,145,285a39.3,39.3,0,0,0-2.9,15,10,10,0,0,0,10,10,40,40,0,0,0,37.1-25,39.3,39.3,0,0,0,2.9-15A10,10,0,0,0,182.1,260Z" style="fill:none;stroke:#fff;stroke-width:4px"/></g></svg>
