<svg id="svg2" xmlns="http://www.w3.org/2000/svg" viewBox="0 0 240 360"><defs><style>.cls-1,.cls-2{fill:#fff;}.cls-2{fill-rule:evenodd;}</style></defs><title>card-reverse</title><g id="g6643"><rect id="rect2987-8-5-81-25" class="cls-1" width="240" height="360" rx="40"/><rect id="rect3757-26-33-5-8" x="20" y="20" width="200" height="320" rx="20"/><path id="path3773-0-4-8-4-60-3-86-6" class="cls-2" d="M180,80A160,160,0,0,0,20,240a40,40,0,0,0,40,40A160,160,0,0,0,220,120,40,40,0,0,0,180,80Z"/><path id="path5973-41" d="M120,115l10,10L90,165c-10,10-10,30,0,40l20-20,40-40,10,10V115Z"/><path id="path5973-4-6" d="M120,245l-10-10,40-40c10-10,10-30,0-40l-20,20L90,215,80,205v40Z"/><path id="path5973-6-5" class="cls-1" d="M50,30l5,5L35,55c-5,5-5,15,0,20L45,65,65,45l5,5V30Z"/><path id="path5973-4-3-5" class="cls-1" d="M50,95l-5-5L65,70c5-5,5-15,0-20L55,60,35,80l-5-5V95Z"/><path id="path5973-6-5-2" class="cls-1" d="M190,265l5,5-20,20c-5,5-5,15,0,20l10-10,20-20,5,5V265Z"/><path id="path5973-4-3-5-8" class="cls-1" d="M190,330l-5-5,20-20c5-5,5-15,0-20l-10,10-20,20-5-5v20Z"/></g></svg>