<svg id="svg2" xmlns="http://www.w3.org/2000/svg" viewBox="0 0 240 360"><defs><style>.cls-1,.cls-2{fill:#fff;}.cls-2{fill-rule:evenodd;}</style></defs><title>card-3</title><g id="g6579"><rect id="rect2987-8-5" class="cls-1" width="240" height="360" rx="40"/><rect id="rect3757-26-33" x="20" y="20" width="200" height="320" rx="20"/><path id="path3773-0-4-8-4-60-3" class="cls-2" d="M180,80A160,160,0,0,0,20,240a40,40,0,0,0,40,40A160,160,0,0,0,220,120,40,40,0,0,0,180,80Z"/><path id="rect3163-52-9-8-1-1-2-7-3-6-4-6-1-8-7-0-1" d="M120,120a30,30,0,0,0-30,30h20a10,10,0,1,1,10,10H108v20h12a20,20,0,1,1-20,20H80a40,40,0,1,0,63.88-32A29.88,29.88,0,0,0,120,120Z"/><path id="rect3163-52-9-8-1-1-2-7-3-6-4-6-1-8-7-0-6-2" class="cls-1" d="M50,30A15,15,0,0,0,35,45H45a5,5,0,1,1,5,5H44V60h6A10,10,0,1,1,40,70H30A20,20,0,1,0,61.94,54,14.83,14.83,0,0,0,65,45,15,15,0,0,0,50,30Z"/><path id="rect3163-52-9-8-1-1-2-7-3-6-4-6-1-8-7-0-6-2-6" class="cls-1" d="M190,330a15,15,0,0,0,15-15H195a5,5,0,1,1-5-5h6V300h-6a10,10,0,1,1,10-10h10a20,20,0,1,0-31.94,16,14.83,14.83,0,0,0-3.06,9A15,15,0,0,0,190,330Z"/></g></svg>