<svg id="svg2" xmlns="http://www.w3.org/2000/svg" viewBox="0 0 240 360"><defs><style>.cls-1,.cls-2{fill:#fff;}.cls-2,.cls-3{fill-rule:evenodd;}</style></defs><title>card-9</title><g id="g6627"><rect id="rect2987-8-5-81" class="cls-1" width="240" height="360" rx="40"/><rect id="rect3757-26-33-5" x="20" y="20" width="200" height="320" rx="20"/><path id="path3773-0-4-8-4-60-3-86" class="cls-2" d="M180,80A160,160,0,0,0,20,240a40,40,0,0,0,40,40A160,160,0,0,0,220,120,40,40,0,0,0,180,80Z"/><path id="path3962-5-8" class="cls-3" d="M120,120a40,40,0,1,0,20,74.62V200a19.89,19.89,0,0,1-37.75,8.88l-18,9A40,40,0,0,0,160,200V160A40,40,0,0,0,120,120Zm0,20a20,20,0,1,1-20,20A20,20,0,0,1,120,140ZM100,244v8h40v-8Z"/><path id="path3962-5-6-2-1-9" class="cls-2" d="M50,90A20,20,0,0,0,70,70V50A20,20,0,1,0,60,67.31V70a10,10,0,0,1-18.88,4.44l-9,4.5A19.94,19.94,0,0,0,50,90Zm0-30A10,10,0,1,1,60,50,10,10,0,0,1,50,60Z"/><path id="path3962-5-6-2-1-8-7" class="cls-2" d="M190,270a20,20,0,0,0-20,20v20a20,20,0,1,0,10-17.31V290a10,10,0,0,1,18.88-4.44l9-4.5A19.94,19.94,0,0,0,190,270Zm0,30a10,10,0,1,1-10,10A10,10,0,0,1,190,300Z"/></g></svg>