<svg id="svg2" xmlns="http://www.w3.org/2000/svg" viewBox="0 0 240 360"><defs><style>.cls-1,.cls-2{fill:#fff;}.cls-2,.cls-3,.cls-4,.cls-5,.cls-6{fill-rule:evenodd;}.cls-3{fill:#f55;}.cls-4{fill:#55f;}.cls-5{fill:#fa0;}.cls-6{fill:#5a5;}</style></defs><title>card-wild-4</title><g id="g6694"><rect id="rect2987-8-5-81-2-1" class="cls-1" width="240" height="360" rx="40"/><rect id="rect3757-26-33-5-9-9" x="20" y="20" width="200" height="320" rx="20"/><path id="path3773-0-4-8-4-60-3-86-5-6" class="cls-2" d="M180,80A160,160,0,0,0,20,240a40,40,0,0,0,40,40A160,160,0,0,0,220,120,40,40,0,0,0,180,80Z"/><path id="rect3980-7-6-2-9-5-60-5-3-1-5" class="cls-1" d="M79.6,30,60,70V80H84V90H94V80h6V70H94V50H84V70H70.4L90,30Z"/><path id="rect5649-4" class="cls-2" d="M34,50V60H24V70H34V80H44V70H54V60H44V50Z"/><path id="rect3980-7-6-2-9-5-60-5-3-1-8-9" class="cls-1" d="M160.4,330,180,290V280H156V270H146v10h-6v10h6v20h10V290h13.6L150,330Z"/><path id="rect5649-1-1" class="cls-2" d="M206,310V300h10V290H206V280H196v10H186v10h10v10Z"/><g id="g6111-38-2"><path id="rect6095-2-9" class="cls-2" d="M82.86,130h40c5.52,0,8.84,4,7.42,9L109.72,211c-1.42,5-7,9-12.58,9h-40c-5.52,0-8.84-4-7.42-9L70.28,139C71.7,134,77.33,130,82.86,130Z"/><path id="rect6097-5-7" class="cls-3" d="M90,140h20c5.52,0,8.84,4,7.42,9L102.58,201c-1.43,5-7.06,9-12.58,9H70c-5.52,0-8.85-4-7.42-9L77.42,149C78.84,144,84.48,140,90,140Z"/></g><g id="g6111-62-2-1"><path id="rect6095-14-0-3" class="cls-2" d="M122.86,100h40c5.52,0,8.84,4,7.42,9L149.72,181c-1.42,5-7.05,9-12.58,9h-40c-5.52,0-8.84-4-7.42-9L110.28,109C111.7,104,117.33,100,122.86,100Z"/><path id="rect6097-6-3-2" class="cls-4" d="M130,110h20c5.52,0,8.84,4,7.42,9L142.58,171c-1.43,5-7.06,9-12.58,9H110c-5.52,0-8.85-4-7.42-9L117.42,119C118.84,114,124.48,110,130,110Z"/></g><g id="g6111-3-5"><path id="rect6095-0-3" class="cls-2" d="M112.86,160h40c5.52,0,8.84,4,7.42,9L139.72,241c-1.42,5-7.05,9-12.58,9h-40c-5.52,0-8.84-4-7.42-9L100.28,169C101.7,164,107.33,160,112.86,160Z"/><path id="rect6097-7-4" class="cls-5" d="M120,170h20c5.52,0,8.84,4,7.42,9L132.58,231c-1.43,5-7.06,9-12.58,9H100c-5.52,0-8.85-4-7.42-9L107.42,179C108.84,174,114.48,170,120,170Z"/></g><g id="g6111-62-7-3"><path id="rect6095-14-8-2" class="cls-2" d="M152.86,130h40c5.52,0,8.84,4,7.42,9L179.72,211c-1.42,5-7.05,9-12.58,9h-40c-5.52,0-8.84-4-7.42-9L140.28,139C141.7,134,147.33,130,152.86,130Z"/><path id="rect6097-6-7-1" class="cls-6" d="M160,140h20c5.52,0,8.84,4,7.42,9L172.58,201c-1.43,5-7.06,9-12.58,9H140c-5.52,0-8.85-4-7.42-9L147.42,149C148.84,144,154.48,140,160,140Z"/></g></g></svg>