<svg id="svg2" xmlns="http://www.w3.org/2000/svg" viewBox="0 0 240 360"><defs><style>.cls-1,.cls-2{fill:#fff;}.cls-2,.cls-3{fill-rule:evenodd;}</style></defs><title>card-7</title><g id="g6611"><rect id="rect2987-4" class="cls-1" width="240" height="360" rx="40"/><rect id="rect3757-2" x="20" y="20" width="200" height="320" rx="20"/><path id="path3773-0-4-8-4-3" class="cls-2" d="M180,80A160,160,0,0,0,20,240a40,40,0,0,0,40,40A160,160,0,0,0,220,120,40,40,0,0,0,180,80Z"/><path id="rect4014" class="cls-3" d="M86,120v40h20V140h40L106,240h20l40-100V120H86Z"/><path id="rect4014-3" class="cls-2" d="M30,30V50H40V40H60L40,90H50L70,40V30H30Z"/><path id="rect4014-3-3" class="cls-2" d="M210,330V310H200v10H180l20-50H190l-20,50v10h40Z"/></g></svg>