<svg id="svg2" xmlns="http://www.w3.org/2000/svg" viewBox="0 0 240 360"><defs><style>.cls-1,.cls-2{fill:#fff;}.cls-2,.cls-3{fill-rule:evenodd;}</style></defs><title>card-block</title><g id="g6635"><rect id="rect2987-8-5-81-5" class="cls-1" width="240" height="360" rx="40"/><rect id="rect3757-26-33-5-3" x="20" y="20" width="200" height="320" rx="20"/><path id="path3773-0-4-8-4-60-3-86-2" class="cls-2" d="M180,80A160,160,0,0,0,20,240a40,40,0,0,0,40,40A160,160,0,0,0,220,120,40,40,0,0,0,180,80Z"/><path id="path5897-6-5" class="cls-3" d="M120.12,120a60,60,0,1,0,42.38,17.62A59.93,59.93,0,0,0,120.12,120ZM120,140a40.08,40.08,0,0,1,20.25,5.5L85.5,200.25A40,40,0,0,1,120,140Zm34.5,19.63a40,40,0,0,1-54.87,54.75Z"/><path id="path5897-6-8-2" class="cls-2" d="M60.06,30a30,30,0,1,0,21.19,8.81A29.94,29.94,0,0,0,60.06,30ZM60,40a20,20,0,0,1,10.12,2.75L42.75,70.12a20,20,0,0,1,3.13-24.31A19.82,19.82,0,0,1,60,40Zm17.25,9.81A20,20,0,0,1,49.81,77.18L77.25,49.81Z"/><path id="path5897-6-8-5" class="cls-2" d="M180.06,270a30,30,0,1,0,21.19,8.81A29.94,29.94,0,0,0,180.06,270ZM180,280a20,20,0,0,1,10.12,2.75l-27.37,27.37a20,20,0,0,1,3.13-24.31A19.82,19.82,0,0,1,180,280Zm17.25,9.81a20,20,0,0,1-27.44,27.37l27.44-27.37Z"/></g></svg>