<svg id="svg2" xmlns="http://www.w3.org/2000/svg" viewBox="0 0 240 360"><defs><style>.cls-1,.cls-2{fill:#fff;}.cls-2{fill-rule:evenodd;}</style></defs><title>card-2</title><g id="g6571"><rect id="rect2987-8" class="cls-1" width="240" height="360" rx="40"/><rect id="rect3757-26" x="20" y="20" width="200" height="320" rx="20"/><path id="path3773-0-4-8-4-60" class="cls-2" d="M180,80A160,160,0,0,0,20,240a40,40,0,0,0,40,40A160,160,0,0,0,220,120,40,40,0,0,0,180,80Z"/><path id="rect3163-52-9-8-1-1-2-7-3-6-5" d="M116,120a39.91,39.91,0,0,0-40,40v4H96v-4a20,20,0,0,1,40,0c0,4.51-3.74,13.36-7.65,16.44-21.22,16.7-21,13.94-52.35,35.56v28h80V212H136v8H100c24.76-17.43,26.57-17,46-34.38,6.22-5.56,10-16.6,10-25.62A39.91,39.91,0,0,0,116,120Z"/><path id="rect3163-52-9-8-1-1-2-7-3-6-0-9" class="cls-1" d="M50,30A20,20,0,0,0,30,50v2H40V50a10,10,0,0,1,20,0c0,2.26-1.87,6.68-3.82,8.22C45.57,66.57,45.68,65.19,30,76V90H70V76H60v4H42c12.38-8.72,13.29-8.51,23-17.19,3.1-2.78,5-8.3,5-12.81A20,20,0,0,0,50,30Z"/><path id="rect3163-52-9-8-1-1-2-7-3-6-0-4" class="cls-1" d="M190,330a20,20,0,0,0,20-20v-2H200v2a10,10,0,0,1-20,0c0-2.26,1.87-6.68,3.82-8.22,10.61-8.35,10.5-7,26.18-17.78V270H170v14h10v-4h18c-12.38,8.72-13.29,8.51-23,17.19-3.1,2.78-5,8.3-5,12.81A20,20,0,0,0,190,330Z"/></g></svg>