<svg id="svg2" xmlns="http://www.w3.org/2000/svg" viewBox="0 0 240 360"><defs><style>.cls-1,.cls-2{fill:#fff;}.cls-2{fill-rule:evenodd;}</style></defs><title>card-5</title><g id="g6595"><rect id="rect2987-8-5-6" class="cls-1" width="240" height="360" rx="40"/><rect id="rect3757-26-33-81" x="20" y="20" width="200" height="320" rx="20"/><path id="path3773-0-4-8-4-60-3-9" class="cls-2" d="M180,80A160,160,0,0,0,20,240a40,40,0,0,0,40,40A160,160,0,0,0,220,120,40,40,0,0,0,180,80Z"/><path id="rect3163-6-0-0-2-7-1-2-19-4" d="M84,120v60h40a20,20,0,1,1-20,20H84a40,40,0,1,0,40-40H104V140h56V120H84Z"/><path id="rect3163-6-0-0-2-7-1-2-19-2-4" class="cls-1" d="M30,30V60H50A10,10,0,1,1,40,70H30A20,20,0,1,0,50,50H40V40H68V30H30Z"/><path id="rect3163-6-0-0-2-7-1-2-19-2-4-6" class="cls-1" d="M210,330V300H190a10,10,0,1,1,10-10h10a20,20,0,1,0-20,20h10v10H172v10h38Z"/></g></svg>