<svg id="svg2" xmlns="http://www.w3.org/2000/svg" viewBox="0 0 240 360"><defs><style>.cls-1,.cls-2{fill:#fff;}.cls-2,.cls-3{fill-rule:evenodd;}</style></defs><title>card-1</title><g id="g6563"><rect id="rect2987" class="cls-1" width="240" height="360" rx="40"/><rect id="rect3757" x="20" y="20" width="200" height="320" rx="20"/><path id="path3773-0-4-8-4" class="cls-2" d="M180,80A160,160,0,0,0,20,240a40,40,0,0,0,40,40A160,160,0,0,0,220,120,40,40,0,0,0,180,80Z"/><path id="rect3921" class="cls-3" d="M112,120,92,140v24l20-20v96h20V120Z"/><path id="rect3921-5" class="cls-2" d="M40,30,30,40V52L40,42V90H50V30Z"/><path id="rect3921-5-5" class="cls-2" d="M200,330l10-10V308l-10,10V270H190v60Z"/></g></svg>