<svg id="svg2" xmlns="http://www.w3.org/2000/svg" viewBox="0 0 240 360"><defs><style>.cls-1,.cls-2{fill:#fff;}.cls-2,.cls-3{fill-rule:evenodd;}</style></defs><title>card-6</title><g id="g6603"><rect id="rect2987-8-5-7" class="cls-1" width="240" height="360" rx="40"/><rect id="rect3757-26-33-2" x="20" y="20" width="200" height="320" rx="20"/><path id="path3773-0-4-8-4-60-3-2" class="cls-2" d="M180,80A160,160,0,0,0,20,240a40,40,0,0,0,40,40A160,160,0,0,0,220,120,40,40,0,0,0,180,80Z"/><path id="path3962-5-6-2" class="cls-3" d="M120,120a40,40,0,0,0-40,40v40a40,40,0,1,0,20-34.62V160a19.89,19.89,0,0,1,37.75-8.88l18-9A39.89,39.89,0,0,0,120,120Zm0,60a20,20,0,1,1-20,20A20,20,0,0,1,120,180Zm-20,64v8h40v-8Z"/><path id="path3962-5-6-2-1" class="cls-2" d="M50,30A20,20,0,0,0,30,50V70A20,20,0,1,0,40,52.69V50a10,10,0,0,1,18.88-4.44l9-4.5A19.94,19.94,0,0,0,50,30Zm0,30A10,10,0,1,1,40,70,10,10,0,0,1,50,60Z"/><path id="path3962-5-6-2-1-8" class="cls-2" d="M190,330a20,20,0,0,0,20-20V290a20,20,0,1,0-10,17.31V310a10,10,0,0,1-18.88,4.44l-9,4.5A19.94,19.94,0,0,0,190,330Zm0-30a10,10,0,1,1,10-10A10,10,0,0,1,190,300Z"/></g></svg>