<svg id="svg2" xmlns="http://www.w3.org/2000/svg" viewBox="0 0 240 360"><defs><style>.cls-1,.cls-2{fill:#fff;}.cls-2,.cls-3{fill-rule:evenodd;}</style></defs><title>card-0</title><g id="g6555"><rect id="rect2987-1" class="cls-1" width="240" height="360" rx="40"/><rect id="rect3757-5" x="20" y="20" width="200" height="320" rx="20"/><path id="path3773-0-4-8-4-2" class="cls-2" d="M180,80A160,160,0,0,0,20,240a40,40,0,0,0,40,40A160,160,0,0,0,220,120,40,40,0,0,0,180,80Z"/><path id="path3962-7" class="cls-3" d="M120,120a40,40,0,0,0-40,40v40a40,40,0,0,0,80,0V160A40,40,0,0,0,120,120Zm0,20a20,20,0,0,1,20,20v40a20,20,0,0,1-40,0V160A20,20,0,0,1,120,140Z"/><path id="path3962-7-1" class="cls-2" d="M50,30A20,20,0,0,0,30,50V70a20,20,0,0,0,40,0V50A20,20,0,0,0,50,30Zm0,10A10,10,0,0,1,60,50V70a10,10,0,0,1-20,0V50A10,10,0,0,1,50,40Z"/><path id="path3962-7-1-2" class="cls-2" d="M190,270a20,20,0,0,0-20,20v20a20,20,0,0,0,40,0V290A20,20,0,0,0,190,270Zm0,10a10,10,0,0,1,10,10v20a10,10,0,0,1-20,0V290A10,10,0,0,1,190,280Z"/></g></svg>