<svg id="svg2" xmlns="http://www.w3.org/2000/svg" viewBox="0 0 240 360"><defs><style>.cls-1,.cls-2{fill:#fff;}.cls-2{fill-rule:evenodd;}</style></defs><title>card-4</title><g id="g6587"><rect id="rect2987-8-5-0" class="cls-1" width="240" height="360" rx="40"/><rect id="rect3757-26-33-8" x="20" y="20" width="200" height="320" rx="20"/><path id="path3773-0-4-8-4-60-3-8" class="cls-2" d="M180,80A160,160,0,0,0,20,240a40,40,0,0,0,40,40A160,160,0,0,0,220,120,40,40,0,0,0,180,80Z"/><path id="rect3980-7-6-2-9-5-60-2" d="M115.2,120,76,200v20h48v20h20V220h12V200H144V160H124v40H96.8L136,120Z"/><path id="rect3980-7-6-2-9-5-60-5-3" class="cls-1" d="M49.2,30,29.6,70V80h24V90h10V80h6V70h-6V50h-10V70H40L59.6,30Z"/><path id="rect3980-7-6-2-9-5-60-5-3-9" class="cls-1" d="M190,330l19.6-40V280h-24V270h-10v10h-6v10h6v20h10V290h13.6l-19.6,40Z"/></g></svg>