<svg id="svg2" xmlns="http://www.w3.org/2000/svg" viewBox="0 0 240 360"><defs><style>.cls-1,.cls-2{fill:#fff;}.cls-2{fill-rule:evenodd;}</style></defs><title>card-8</title><g id="g6619"><rect id="rect2987-8-5-8" class="cls-1" width="240" height="360" rx="40"/><rect id="rect3757-26-33-9" x="20" y="20" width="200" height="320" rx="20"/><path id="path3773-0-4-8-4-60-3-0" class="cls-2" d="M180,80A160,160,0,0,0,20,240a40,40,0,0,0,40,40A160,160,0,0,0,220,120,40,40,0,0,0,180,80Z"/><path id="rect3163-52-9-8-1-1-2-7-3-6-4-6-1-8-8-5" d="M120,120a29.88,29.88,0,0,0-23.88,48,40,40,0,1,0,47.76,0A29.88,29.88,0,0,0,120,120Zm0,20a10,10,0,1,1-10,10A10,10,0,0,1,120,140Zm-2,40a19.06,19.06,0,0,1,2,0,19,19,0,1,1-2,0Z"/><path id="rect3163-52-9-8-1-1-2-7-3-6-4-6-1-8-8-2-1" class="cls-1" d="M50,30A15,15,0,0,0,35,45a14.83,14.83,0,0,0,3.06,9,20,20,0,1,0,23.88,0A14.83,14.83,0,0,0,65,45,15,15,0,0,0,50,30Zm0,10a5,5,0,1,1-5,5A5,5,0,0,1,50,40ZM49,60a8.34,8.34,0,0,1,1,0,9.51,9.51,0,1,1-1,0Z"/><path id="rect3163-52-9-8-1-1-2-7-3-6-4-6-1-8-8-2-1-1" class="cls-1" d="M190,330a15,15,0,0,1-15-15,14.83,14.83,0,0,1,3.06-9,20,20,0,1,1,23.88,0,14.83,14.83,0,0,1,3.06,9A15,15,0,0,1,190,330Zm0-10a5,5,0,1,0-5-5A5,5,0,0,0,190,320Zm-1-20a8.34,8.34,0,0,0,1,0,9.51,9.51,0,1,0-1,0Z"/></g></svg>