<svg id="bcc9d9c1-ecc5-4010-b179-3e04d7aa321b" data-name="svg2" xmlns="http://www.w3.org/2000/svg" viewBox="0 0 200 320"><path id="ab4cf2fc-1e77-4b41-829f-090dc8c8e88b" data-name="g6595" d="M64,100v60h40a20,20,0,1,1-20,20H64a40,40,0,1,0,40-40H84V120h56V100H64ZM40,260A40.12,40.12,0,0,1,0,220v80a19.81,19.81,0,0,0,20,20H180a19.81,19.81,0,0,0,20-20V100A160,160,0,0,1,40,260Zm130-10a19.81,19.81,0,0,1,20,20H180a10,10,0,1,0-10,10h20v30H152V300h28V290H170a20,20,0,0,1,0-40ZM180,0H20A19.81,19.81,0,0,0,0,20V220A160,160,0,0,1,160,60a39.86,39.86,0,0,1,40,40V20A19.81,19.81,0,0,0,180,0ZM30,70A19.81,19.81,0,0,1,10,50H20A10,10,0,1,0,30,40H10V10H48V20H20V30H30a20,20,0,0,1,0,40Z"/></svg>