<svg id="bd7ee78c-79ba-4dbe-8c4e-edae1d88b58e" data-name="svg2" xmlns="http://www.w3.org/2000/svg" viewBox="0 0 200 320"><path id="bbb95661-ebdb-450e-a3d3-538882118136" data-name="g6611"
                                                                                                                               d="M66,100v40H86V120h40L86,220h20l40-100V100H66ZM40,260A40.12,40.12,0,0,1,0,220v80a19.81,19.81,0,0,0,20,20H180a19.81,19.81,0,0,0,20-20V100A160,160,0,0,1,40,260Zm140-10-20,50h20V290h10v20H150V300l20-50ZM180,0H20A20.06,20.06,0,0,0,0,20V220A160,160,0,0,1,160,60a39.61,39.61,0,0,1,40,40V20A19.81,19.81,0,0,0,180,0ZM50,20,30,70H20L40,20H20V30H10V10H50Z"
/></svg>
