<svg id="f8e5628f-b9cf-4e3b-b9d5-afd6c7bf4304" data-name="svg2" xmlns="http://www.w3.org/2000/svg" viewBox="0 0 200 320"><path id="bbc89aca-369f-4431-9d50-45008fdb46be" data-name="g6619"
                                                                                                                               d="M100,100a30.22,30.22,0,0,0-30,30,31.33,31.33,0,0,0,6,18,40,40,0,1,0,48,0,28.71,28.71,0,0,0,6-18A29.71,29.71,0,0,0,100,100Zm0,20a10,10,0,1,1-10,10A9.9,9.9,0,0,1,100,120Zm-2,40h2a20,20,0,1,1-20,20C80,169.6,88,160.8,98,160ZM25.2,24.8A4.62,4.62,0,0,1,30,20a4.8,4.8,0,0,1,0,9.6A5.16,5.16,0,0,1,25.2,24.8ZM174.8,295.2a4.8,4.8,0,1,1-9.6,0,5.16,5.16,0,0,1,4.8-4.8A4.86,4.86,0,0,1,174.8,295.2ZM180,0H20A20.06,20.06,0,0,0,0,20V220A160,160,0,0,1,160,60a39.61,39.61,0,0,1,40,40V20A19.81,19.81,0,0,0,180,0ZM30,70A19.81,19.81,0,0,1,10,50a20.27,20.27,0,0,1,8-16,14,14,0,0,1-3.2-8.8,15.2,15.2,0,0,1,30.4,0A14,14,0,0,1,42,34a20.27,20.27,0,0,1,8,16A19.81,19.81,0,0,1,30,70ZM40,260A40.12,40.12,0,0,1,0,220v80a19.81,19.81,0,0,0,20,20H180a19.81,19.81,0,0,0,20-20V100A160,160,0,0,1,40,260Zm130-10a19.81,19.81,0,0,1,20,20,20.27,20.27,0,0,1-8,16,14,14,0,0,1,3.2,8.8,15.2,15.2,0,0,1-30.4,0A14,14,0,0,1,158,286a20.27,20.27,0,0,1-8-16A19.81,19.81,0,0,1,170,250ZM40,50a10,10,0,0,1-20,0,10,10,0,0,1,9.2-10H30A9.9,9.9,0,0,1,40,50ZM160,270a10,10,0,1,1,10,10h-.8C164,279.2,160,275.2,160,270Z"
/></svg>
