<svg id="bdad73e0-7800-4ff7-a795-28e677c25a45" data-name="svg2" xmlns="http://www.w3.org/2000/svg" viewBox="0 0 200 320"><path id="b6134122-4531-485e-8be6-899bedc12328" data-name="g6603" d="M100,100a40.12,40.12,0,0,0-40,40v40a40,40,0,1,0,40-40,42.51,42.51,0,0,0-20,5.2V140a19.81,19.81,0,0,1,20-20,19,19,0,0,1,17.6,11.2l18-8.8A39,39,0,0,0,100,100Zm0,60a20,20,0,1,1-20,20A19.81,19.81,0,0,1,100,160ZM40,50A10,10,0,1,1,30,40,9.9,9.9,0,0,1,40,50ZM160,270a10,10,0,0,1,20,0,10.16,10.16,0,0,1-10,10A9.9,9.9,0,0,1,160,270ZM40,260A40.12,40.12,0,0,1,0,220v80a19.81,19.81,0,0,0,20,20H180a19.81,19.81,0,0,0,20-20V100A160,160,0,0,1,40,260Zm130-10a19.81,19.81,0,0,1,20,20v20a19.81,19.81,0,0,1-20,20,19.23,19.23,0,0,1-17.6-11.2l8.8-4.4A9.89,9.89,0,0,0,180,290v-2.8a17.18,17.18,0,0,1-10,2.8,20,20,0,0,1,0-40ZM180,0H20A19.81,19.81,0,0,0,0,20V220A160,160,0,0,1,160,60a39.86,39.86,0,0,1,40,40V20A19.81,19.81,0,0,0,180,0ZM30,70A19.81,19.81,0,0,1,10,50V30A19.81,19.81,0,0,1,30,10,19.43,19.43,0,0,1,47.6,21.2l-8.8,4.4A9.89,9.89,0,0,0,20,30v2.8A17.18,17.18,0,0,1,30,30a20,20,0,0,1,0,40Z"/></svg>