<svg id="b7d18098-20cc-4f87-bdf2-87d037126528" data-name="svg2" xmlns="http://www.w3.org/2000/svg" viewBox="0 0 200 320">
    <path
            d="M100,100a40.12,40.12,0,0,0-40,40v40a40,40,0,0,0,80,0V140A39.86,39.86,0,0,0,100,100Zm20,80a20,20,0,0,1-40,0V140a20,20,0,0,1,40,0ZM40,30V50a10,10,0,0,1-20,0V30A9.9,9.9,0,0,1,30,20,10.16,10.16,0,0,1,40,30Zm0,230A40.12,40.12,0,0,1,0,220v80a19.81,19.81,0,0,0,20,20H180a19.81,19.81,0,0,0,20-20V100C200,188.4,128,260,40,260Zm130-10a19.81,19.81,0,0,1,20,20v20a20,20,0,0,1-40,0V270A19.81,19.81,0,0,1,170,250Zm-10,40V270a10,10,0,0,1,20,0v20a10,10,0,0,1-20,0ZM180,0H20A19.81,19.81,0,0,0,0,20V220A160,160,0,0,1,160,60a40.12,40.12,0,0,1,40,40V20A20.06,20.06,0,0,0,180,0ZM50,50A19.81,19.81,0,0,1,30,70,19.81,19.81,0,0,1,10,50V30A19.81,19.81,0,0,1,30,10,19.81,19.81,0,0,1,50,30Z"
          style="fill-rule:evenodd"/>
</svg>
