<svg id="bce31e7d-efe0-4c21-926d-7ccc7836c508" data-name="svg2" xmlns="http://www.w3.org/2000/svg" viewBox="0 0 200 320"><path id="b1d158a1-86d9-40cb-b458-1d0205243bc9" data-name="g6587"
                                                                                                                               d="M95.2,100,56,180v20h48v20h20V200h12V180H124V140H104v40H76.8L116,100ZM40,260A40.12,40.12,0,0,1,0,220v80a19.81,19.81,0,0,0,20,20H180a19.81,19.81,0,0,0,20-20V100A160,160,0,0,1,40,260Zm115.6-10h10v10h24v10L170,310H159.6l19.6-40H165.6v20h-10V270h-6V260h6ZM180,0H20A19.81,19.81,0,0,0,0,20V220A160,160,0,0,1,160,60a39.86,39.86,0,0,1,40,40V20A19.81,19.81,0,0,0,180,0ZM49.6,60h-6V70h-10V60H9.6V50L29.2,10H39.6L20,50H33.6V30h10V50h6Z"
/></svg>
