<svg id="a7c28e4e-51ca-4bdf-8f7f-768a331b5a62" data-name="svg2" xmlns="http://www.w3.org/2000/svg" viewBox="0 0 200 320"><path id="a89ff724-ae4e-49e5-8aa2-cf439dc2ac96" data-name="g9420-2"
                                                                                                                               d="M95.87,190.4,92.8,201.2c-1.6,4.8-7.2,9.2-12.4,9.2h-20c-5.6,0-8.8-4-7.6-9.2l14.8-52C68.8,144,74.4,140,80,140H91.67L80,181.2c-1.2,5.2,2,9.2,7.6,9.2Zm11.73-71.2-14.8,52c-1.2,5.2,2,9.2,7.6,9.2h20c5.2,0,10.8-4.4,12.4-9.2l14.8-52c1.2-5.2-2-9.2-7.6-9.2H120C114.4,110,108.8,114,107.6,119.2ZM200,20v80a39.86,39.86,0,0,0-40-40A160,160,0,0,0,0,220V20A19.81,19.81,0,0,1,20,0H180A19.81,19.81,0,0,1,200,20ZM34,40H24V30H14V40H4V50H14V60H24V50H34ZM52,60c12.4-8.8,13.2-8.4,22.8-17.2C78,40,80,34.4,80,30A20.06,20.06,0,0,0,60,10,19.81,19.81,0,0,0,40,30v2H50V30a10,10,0,0,1,20,0c0,2.4-2,6.8-4,8.4C55.2,46.8,55.6,45.2,40,56V70H80V56H70v4H52Zm148,40V300a19.81,19.81,0,0,1-20,20H20A19.81,19.81,0,0,1,0,300V220a40.12,40.12,0,0,0,40,40A160,160,0,0,0,200,100ZM166,280h10v10h10V280h10V270H186V260H176v10H166Zm-6-30H120v14h10v-4h18c-12.4,8.8-13.2,8.4-22.8,17.2C122,280,120,285.6,120,290a20.06,20.06,0,0,0,20,20,19.81,19.81,0,0,0,20-20v-2H150v2a10,10,0,0,1-20,0c0-2.4,2-6.8,4-8.4,10.8-8.4,10.4-6.8,26-17.6Z"
/></svg>
