<svg id="a907d73c-e1f7-4322-9da8-2c406b30a11d" data-name="svg2" xmlns="http://www.w3.org/2000/svg" viewBox="0 0 200 320"><path id="f144add2-a427-4712-9ba3-ee86a1cb073e" data-name="g6571"
                                                                                                                               d="M96,100a40.12,40.12,0,0,0-40,40v4H76v-4a20,20,0,0,1,40,0c0,4.4-3.6,13.2-7.6,16.4C87.2,173.2,87.6,170.4,56,192v28h80V192H116v8H80c24.8-17.6,26.4-17.2,46-34.4,6.4-5.6,10-16.8,10-25.6A39.86,39.86,0,0,0,96,100ZM40,260A40.12,40.12,0,0,1,0,220v80a19.81,19.81,0,0,0,20,20H180a19.81,19.81,0,0,0,20-20V100A160,160,0,0,1,40,260Zm150-10v14c-15.6,10.8-15.6,9.6-26,17.6-2,1.6-4,6-4,8.4a10,10,0,0,0,20,0v-2h10v2a20,20,0,0,1-40,0c0-4.4,2-10,5.2-12.8,9.6-8.8,10.8-8.4,22.8-17.2H160v4H150V250h40ZM180,0H20A19.81,19.81,0,0,0,0,20V220A160,160,0,0,1,160,60a40.12,40.12,0,0,1,40,40V20A20.06,20.06,0,0,0,180,0ZM30,60H40V56H50V70H10V56c15.6-10.8,15.6-9.6,26-17.6,2-1.6,4-6,4-8.4a10,10,0,0,0-20,0v2H10V30A19.81,19.81,0,0,1,30,10,19.81,19.81,0,0,1,50,30c0,4.4-2,10-5.2,12.8C35.2,51.6,34,51.2,22,60Z"/></svg>
