<svg id="b2afec17-8377-4b7f-9d24-94f6a6bc6805" data-name="svg2" xmlns="http://www.w3.org/2000/svg" viewBox="0 0 200 320"><path id="b4fbbc23-eae8-439c-8800-f8f6beb181b7" data-name="g6643"
                                                                                                                               d="M100,94.8l10,10-40,40c-10,10-10,30,0,40l20-20,40-40,10,10v-40Zm0,130-10-10,40-40c10-10,10-30,0-40l-20,20-40,40-10-10v40ZM40,260A40.12,40.12,0,0,1,0,220v80a19.81,19.81,0,0,0,20,20H180a19.81,19.81,0,0,0,20-20V100A160,160,0,0,1,40,260Zm145.2,25.2-20,20L170,310v.4H150.4v-20l4.8,4.8,20-20,10-10C190,270,190,280.4,185.2,285.2ZM170,244.8v-.4h19.6v20l-4.8-4.8-20,20-10,10c-4.8-4.8-4.8-15.2,0-20l20-20ZM180,0H20A19.81,19.81,0,0,0,0,20V220A160,160,0,0,1,160,60a39.86,39.86,0,0,1,40,40V20A19.81,19.81,0,0,0,180,0ZM45.2,50l-20,20L30,74.8v.4H10.4v-20L15.2,60l20-20,10-10C50,34.8,50,45.2,45.2,50Zm4.4-20.4-4.8-4.8-20,20-10,10c-4.8-4.8-4.8-15.2,0-20l20-20L30,10V9.6H49.6Z"
/></svg>
