<svg id="a9e8d956-d60c-4887-a6c2-019cc5b48e83" data-name="svg2" xmlns="http://www.w3.org/2000/svg" viewBox="0 0 200 320"><path id="fc5013d4-a559-4421-aa56-013dd4ffd12f" data-name="g6627"
                                                                                                                               d="M100,100a40,40,0,0,0,0,80,42.51,42.51,0,0,0,20-5.2V180a19.81,19.81,0,0,1-20,20,19,19,0,0,1-17.6-11.2l-18,8.8a39.34,39.34,0,0,0,35.6,22,40.12,40.12,0,0,0,40-40v-40A39.78,39.78,0,0,0,100,100Zm0,20a20,20,0,1,1-20,20A20.06,20.06,0,0,1,100,120ZM40,30A10,10,0,1,1,30,20,9.9,9.9,0,0,1,40,30ZM160,290a10,10,0,1,1,10,10A9.9,9.9,0,0,1,160,290ZM40,260A40.12,40.12,0,0,1,0,220v80a19.81,19.81,0,0,0,20,20H180a19.81,19.81,0,0,0,20-20V100A160,160,0,0,1,40,260Zm130-10c8,0,14.8,4.4,17.6,11.2l-8.8,4.4A9.89,9.89,0,0,0,160,270v2.8a17.18,17.18,0,0,1,10-2.8,20,20,0,1,1-20,20V270A19.81,19.81,0,0,1,170,250ZM180,0H20A20.06,20.06,0,0,0,0,20V220A160,160,0,0,1,160,60a39.86,39.86,0,0,1,40,40V20A19.81,19.81,0,0,0,180,0ZM50,50A19.81,19.81,0,0,1,30,70,20.14,20.14,0,0,1,12.4,58.8l8.8-4.4A9.89,9.89,0,0,0,40,50V47.2A17.18,17.18,0,0,1,30,50,19.81,19.81,0,0,1,10,30,19.81,19.81,0,0,1,30,10,19.81,19.81,0,0,1,50,30Z"
/></svg>
