<svg id="e4cdf13b-eea3-4b6c-8125-0d1c088ecb0e" data-name="svg2" xmlns="http://www.w3.org/2000/svg" viewBox="0 0 200 320">
    <g id="bd7f52e8-1e33-4103-99ad-ee17b8754cd1" data-name="g6694"><path id="aae552d1-b050-4d20-a2f9-5f113ce6a15e" data-name="rect3757-26-33-5-9-9" d="M20,0H180a19.81,19.81,0,0,1,20,20V300a19.81,19.81,0,0,1-20,20H20A19.81,19.81,0,0,1,0,300V20A20.06,20.06,0,0,1,20,0Z" style="fill-rule:evenodd"/><path id="a106bc0c-01f2-444d-ab21-a821e05a1143" data-name="path3773-0-4-8-4-60-3-86-5-6" d="M160,60A160,160,0,0,0,0,220a40.12,40.12,0,0,0,40,40A160,160,0,0,0,200,100,39.86,39.86,0,0,0,160,60Z" style="fill:#fff;fill-rule:evenodd"/><path id="e265d262-8117-4709-bbf9-6e047da3d45d" data-name="rect3980-7-6-2-9-5-60-5-3-1-5" d="M59.6,10,40,50V60H64V70H74V60h6V50H74V30H64V50H50.4L70,10Z" style="fill:#fff"/><path id="aefb329a-c7cc-49be-85fc-3f9ef5f606f0" data-name="rect5649-4" d="M14,30V40H4V50H14V60H24V50H34V40H24V30Z" style="fill:#fff;fill-rule:evenodd"/><path id="bb91d8df-ac3c-4fd0-b7dc-f091e13bf575" data-name="rect3980-7-6-2-9-5-60-5-3-1-8-9" d="M140.4,310,160,270V260H136V250H126v10h-6v10h6v20h10V270h13.6L130,310Z" style="fill:#fff"/><path id="f45f8c51-aaa4-4994-a91b-dd222376076d" data-name="rect5649-1-1" d="M186,290V280h10V270H186V260H176v10H166v10h10v10Z" style="fill:#fff;fill-rule:evenodd"/><g id="b0358920-2ff7-4f53-bf88-3f385301e1b4" data-name="g6111-38-2"><path id="a3e0918e-dbe4-40aa-8f7b-6f31951ea73b" data-name="rect6095-2-9" d="M62.8,110h40c5.6,0,8.8,4,7.6,9.2L90,191.2c-1.6,4.8-7.2,9.2-12.4,9.2h-40c-5.6,0-8.8-4-7.6-9.2l20.4-72C51.6,114,57.6,110,62.8,110Z" style="fill:#fff;fill-rule:evenodd"/><path id="ab5609b8-f0fe-4cf0-8e7f-353d518ee68e" data-name="rect6097-5-7" d="M70,120H90c5.6,0,8.8,4,7.6,9.2l-14.8,52c-1.6,4.8-7.2,9.2-12.4,9.2h-20c-5.6,0-8.8-4-7.6-9.2l14.8-52C58.8,124,64.4,120,70,120Z" style="fill:#f55;fill-rule:evenodd"/></g><g id="b19a30ad-79d9-40df-bbbc-cab7d2141b0a" data-name="g6111-62-2-1"><path id="accb4d21-108b-4b71-8b5a-6c4b8469b048" data-name="rect6095-14-0-3" d="M102.8,80h40c5.6,0,8.8,4,7.6,9.2l-20.4,72c-1.6,4.8-7.2,9.2-12.4,9.2h-40c-5.6,0-8.8-4-7.6-9.2l20.4-72C91.6,84,97.6,80,102.8,80Z" style="fill:#fff;fill-rule:evenodd"/><path id="f93b9207-247e-4f4b-8bbb-bcf9ea15432e" data-name="rect6097-6-3-2" d="M110,90h20c5.6,0,8.8,4,7.6,9.2l-14.8,52c-1.6,4.8-7.2,9.2-12.4,9.2h-20c-5.6,0-8.8-4-7.6-9.2l14.8-52C98.8,94,104.4,90,110,90Z" style="fill:#55f;fill-rule:evenodd"/></g><g id="f675eee9-213c-4264-b890-9e3cbf3fe394" data-name="g6111-3-5"><path id="e7e251ad-fbf8-4299-929d-986f4ae276fa" data-name="rect6095-0-3" d="M92.8,140h40c5.6,0,8.8,4,7.6,9.2l-20.4,72c-1.6,4.8-7.2,9.2-12.4,9.2h-40c-5.6,0-8.8-4-7.6-9.2l20.4-72C81.6,144,87.6,140,92.8,140Z" style="fill:#fff;fill-rule:evenodd"/><path id="af2a4eab-5590-4dc1-80f4-eb2ed866a328" data-name="rect6097-7-4" d="M100,150h20c5.6,0,8.8,4,7.6,9.2l-14.8,52c-1.6,4.8-7.2,9.2-12.4,9.2h-20c-5.6,0-8.8-4-7.6-9.2l14.8-52C88.8,154,94.4,150,100,150Z" style="fill:#fa0;fill-rule:evenodd"/></g><g id="e836be77-0007-4bca-b06d-9b26e45fe975" data-name="g6111-62-7-3"><path id="af85a3d2-1943-41d9-ac18-f3fb7e85185d" data-name="rect6095-14-8-2" d="M132.8,110h40c5.6,0,8.8,4,7.6,9.2l-20.4,72c-1.6,4.8-7.2,9.2-12.4,9.2h-40c-5.6,0-8.8-4-7.6-9.2l20.4-72C121.6,114,127.6,110,132.8,110Z" style="fill:#fff;fill-rule:evenodd"/><path id="e2b69c32-af80-4815-b041-401f9c9d2911" data-name="rect6097-6-7-1" d="M140,120h20c5.6,0,8.8,4,7.6,9.2l-14.8,52c-1.6,4.8-7.2,9.2-12.4,9.2h-20c-5.6,0-8.8-4-7.6-9.2l14.8-52C128.8,124,134.4,120,140,120Z" style="fill:#5a5;fill-rule:evenodd"/></g></g></svg>
