<svg id="a21fad73-1e83-417d-923b-b06095715ab2" data-name="svg2" xmlns="http://www.w3.org/2000/svg" viewBox="0 0 200 320"><path id="bc81d97f-7da4-4b05-9215-44b117755dc8" data-name="g6579"
       d="M100,100a30.22,30.22,0,0,0-30,30H90a10,10,0,1,1,10,10H88v20h12a20,20,0,1,1-20,20H60a40,40,0,1,0,64-32,28.71,28.71,0,0,0,6-18A30,30,0,0,0,100,100ZM40,260A40.12,40.12,0,0,1,0,220v80a19.81,19.81,0,0,0,20,20H180a19.81,19.81,0,0,0,20-20V100A160,160,0,0,1,40,260Zm130.4-10a19.81,19.81,0,0,1,20,20h-10a10,10,0,1,0-10,10h6v10h-6a4.86,4.86,0,0,0-4.8,4.8,5.16,5.16,0,0,0,4.8,4.8,4.86,4.86,0,0,0,4.8-4.8h10A15.19,15.19,0,0,1,170,310a14.86,14.86,0,0,1-14.8-15.2,14,14,0,0,1,3.2-8.8,20.27,20.27,0,0,1-8-16A19.81,19.81,0,0,1,170.4,250ZM180,0H20A19.81,19.81,0,0,0,0,20V220A160,160,0,0,1,160,60a39.86,39.86,0,0,1,40,40V20A19.81,19.81,0,0,0,180,0ZM29.6,70a19.81,19.81,0,0,1-20-20h10a10,10,0,1,0,10-10h-6V30h6a5.16,5.16,0,0,0,4.8-4.8,5.16,5.16,0,0,0-4.8-4.8,4.86,4.86,0,0,0-4.8,4.8h-10A15.19,15.19,0,0,1,30,10,14.61,14.61,0,0,1,44.8,25.2,14,14,0,0,1,41.6,34a20.27,20.27,0,0,1,8,16A19.81,19.81,0,0,1,29.6,70Z"
/></svg>
